<?xml version="1.0" encoding="UTF-8" standalone="no"?>
<!DOCTYPE svg PUBLIC "-//W3C//DTD SVG 1.1//EN" "http://www.w3.org/Graphics/SVG/1.1/DTD/svg11.dtd">
<svg width="100%" height="100%" viewBox="0 0 559 450" version="1.1" xmlns="http://www.w3.org/2000/svg" xmlns:xlink="http://www.w3.org/1999/xlink" xml:space="preserve" xmlns:serif="http://www.serif.com/" style="fill-rule:evenodd;clip-rule:evenodd;stroke-linejoin:round;stroke-miterlimit:1.41421;">
    <g id="Artboard1" transform="matrix(1,0,0,0.921194,-57.9369,-42.3846)">
        <rect x="57.937" y="46.01" width="558.506" height="488.18" style="fill:none;"/>
        <g transform="matrix(1,0,0,1.08555,-223.814,-113.872)">
            <g transform="matrix(-1,0,0,-0.698207,969.077,779.413)">
                <path d="M409.829,302.061L669.596,697.289L136.22,743.447L409.829,302.061Z" style="fill:rgb(255,205,0);"/>
            </g>
            <g transform="matrix(0.464932,-0.805286,0.805286,0.464932,-24.944,632.012)">
                <g transform="matrix(0.443953,0.256316,-0.256316,0.443953,332.071,47.5292)">
                    <path d="M938.682,-7.151C1008.82,109.537 1055.86,241.409 1059.96,377.342C1064.49,527.246 1015.27,676.233 937.753,805.405L912.663,790.348C981.513,675.619 1027.31,547.008 1030.79,414.853C1034.55,271.748 987.272,130.012 912.682,6.397L937.735,-8.72C938.05,-8.197 938.366,-7.674 938.682,-7.151Z" style="fill:rgb(255,0,107);fill-rule:nonzero;"/>
                </g>
                <g transform="matrix(0.369144,0.213125,-0.213125,0.369144,333.592,88.6718)">
                    <path d="M941.222,-8.68C1011.3,107.924 1058.8,240.644 1062.93,377.252C1067.47,527.524 1018.68,675.772 941.242,805.354L940.296,806.93L910.121,788.823C985.111,663.851 1032.75,521.229 1027.65,375.276C1023.13,245.84 977.643,119.81 910.143,7.928L940.274,-10.251C940.59,-9.728 940.906,-9.204 941.222,-8.68Z" style="fill:rgb(255,0,107);fill-rule:nonzero;"/>
                </g>
                <g transform="matrix(0.299317,0.172811,-0.172811,0.299317,335.757,126.375)">
                    <path d="M944.738,-10.799C1030.84,132.46 1080.48,299.436 1063.97,465.768C1051.89,587.434 1006.38,704.786 943.815,809.043L906.602,786.711C987.992,651.085 1036.97,490.869 1020.52,331.641C1008.77,217.807 965.647,107.854 906.629,10.05L943.788,-12.373C944.104,-11.848 944.421,-11.324 944.738,-10.799Z" style="fill:rgb(255,0,107);fill-rule:nonzero;"/>
                </g>
                <g transform="matrix(0.230095,0.132845,-0.132845,0.230095,339.225,164.741)">
                    <path d="M949.683,-13.776C1037.16,131.772 1087.28,301.311 1069.21,471.212C1056.39,591.832 1011.05,708.213 948.765,812.012L901.652,783.741C902.872,781.708 904.087,779.672 905.296,777.633C984.371,643.76 1031.1,486.679 1014.63,330.737C1002.74,218.2 960.314,110.197 901.686,13.031L948.73,-15.354C949.048,-14.828 949.365,-14.302 949.683,-13.776Z" style="fill:rgb(255,0,107);fill-rule:nonzero;"/>
                </g>
                <g transform="matrix(0.866025,0.5,-0.5,0.866025,414.995,-135.368)">
                    <path d="M203.424,297.122C262.602,297.122 310.647,345.167 310.647,404.345C310.647,463.523 262.602,511.567 203.424,511.567C144.247,511.567 96.202,463.523 96.202,404.345C96.202,345.167 144.247,297.122 203.424,297.122ZM149.838,348.998C172.228,348.987 173.229,376.458 173.229,403.114C173.229,436.844 163.078,441.766 140.753,436.168C114.897,429.685 110.337,420.892 110.337,403.114C110.337,376.458 128.948,349.007 149.838,348.998Z" style="fill:rgb(255,0,107);"/>
                </g>
            </g>
        </g>
    </g>
</svg>
